<?xml version="1.0" encoding="iso-8859-1"?>
<!-- Generator: Adobe Illustrator 19.1.0, SVG Export Plug-In . SVG Version: 6.00 Build 0)  -->
<svg version="1.1" id="Capa_1" xmlns="http://www.w3.org/2000/svg" xmlns:xlink="http://www.w3.org/1999/xlink" x="0px" y="0px"
	 viewBox="0 0 64.828 64.828" style="enable-background:new 0 0 64.828 64.828;" xml:space="preserve">
<g>
	<path d="M57.414,17l-0.707,0.707c-1.324,1.324-2.287,1.707-4.293,1.707c-4.056,0-7-2.944-7-7c0-2.006,0.383-2.969,1.707-4.293
		l0.707-0.707L40.414,0L0,40.414l7.414,7.414l0.707-0.707c1.324-1.324,2.287-1.707,4.293-1.707c4.056,0,7,2.944,7,7
		c0,2.006-0.383,2.969-1.707,4.293L17,57.414l7.414,7.414l40.414-40.414L57.414,17z M19.8,57.385
		c1.192-1.421,1.614-2.79,1.614-4.971c0-5.131-3.869-9-9-9c-2.181,0-3.55,0.422-4.972,1.614l-4.614-4.614l23.586-23.586l3.293,3.293
		l1.414-1.414l-3.293-3.293L40.414,2.828l4.614,4.615c-1.192,1.421-1.614,2.79-1.614,4.971c0,5.131,3.869,9,9,9
		c2.181,0,3.55-0.422,4.972-1.614L62,24.414L49.414,37l-3.293-3.293l-1.414,1.414L48,38.414L24.414,62L19.8,57.385z"/>
	<path d="M35.707,26.122l-4-4l1.414-1.414l4,4L35.707,26.122z"/>
	<path d="M42.707,33.122l-4-4l1.414-1.414l4,4L42.707,33.122z"/>
</g>
<g>
</g>
<g>
</g>
<g>
</g>
<g>
</g>
<g>
</g>
<g>
</g>
<g>
</g>
<g>
</g>
<g>
</g>
<g>
</g>
<g>
</g>
<g>
</g>
<g>
</g>
<g>
</g>
<g>
</g>
</svg>
