<?xml version="1.0" encoding="iso-8859-1"?>
<!-- Generator: Adobe Illustrator 19.0.0, SVG Export Plug-In . SVG Version: 6.00 Build 0)  -->
<svg version="1.1" id="Capa_1" xmlns="http://www.w3.org/2000/svg" xmlns:xlink="http://www.w3.org/1999/xlink" x="0px" y="0px"
	 viewBox="0 0 512 512" style="enable-background:new 0 0 512 512;fill:#E76B74" xml:space="preserve">
<g>
	<g>
		<path d="M405.333,245.333V480c0,5.891-4.776,10.667-10.667,10.667H160c-5.891,0-10.667-4.776-10.667-10.667V362.667H128V480
			c0,17.673,14.327,32,32,32h234.667c17.673,0,32-14.327,32-32V245.333H405.333z"/>
	</g>
</g>
<g>
	<g>
		<path d="M202.667,288h-96C65.451,288.053,32.053,321.451,32,362.667h21.333c0.035-29.441,23.893-53.298,53.333-53.333h96
			c11.782,0,21.333,9.551,21.333,21.333c0,11.782-9.551,21.333-21.333,21.333h-96v21.333h96c23.564,0,42.667-19.103,42.667-42.667
			S226.231,288,202.667,288z"/>
	</g>
</g>
<g>
	<g>
		<path d="M10.667,320C4.776,320,0,324.776,0,330.667v10.667h53.333V320H10.667z"/>
	</g>
</g>
<g>
	<g>
		<path d="M106.667,469.333C77.226,469.298,53.369,445.441,53.333,416H32c0.053,41.215,33.451,74.614,74.667,74.667h32v-21.333
			H106.667z"/>
	</g>
</g>
<g>
	<g>
		<path d="M0,437.333V448c0,5.891,4.776,10.667,10.667,10.667h42.667v-21.333H0z"/>
	</g>
</g>
<g>
	<g>
		<path d="M405.333,21.333h-74.667C307.103,21.333,288,40.436,288,64s19.103,42.667,42.667,42.667h96V85.333h-96
			c-11.782,0-21.333-9.551-21.333-21.333c0-11.782,9.551-21.333,21.333-21.333h74.667c29.441,0.035,53.298,23.893,53.333,53.333H480
			C479.947,54.785,446.549,21.386,405.333,21.333z"/>
	</g>
</g>
<g>
	<g>
		<path d="M501.333,53.333h-42.667v21.333H512V64C512,58.109,507.224,53.333,501.333,53.333z"/>
	</g>
</g>
<g>
	<g>
		<path d="M458.667,149.333c-0.035,29.441-23.893,53.298-53.333,53.333h-74.667V224h74.667
			c41.215-0.053,74.614-33.451,74.667-74.667H458.667z"/>
	</g>
</g>
<g>
	<g>
		<path d="M458.667,170.667V192h42.667c5.891,0,10.667-4.776,10.667-10.667v-10.667H458.667z"/>
	</g>
</g>
<g>
	<g>
		<path d="M379.168,93.067l-20.523,5.813c8.347,29.499,3.568,61.165-13.115,86.886c-31.983,49.311-97.884,63.359-147.196,31.376
			c-49.311-31.983-63.359-97.884-31.376-147.196c31.983-49.311,97.884-63.359,147.196-31.376l11.648-17.877
			C305.042,7.193,280.81,0.004,256.045,0c-70.693-0.012-128.01,57.285-128.022,127.978S185.308,255.988,256,256
			c11.754-0.008,23.451-1.634,34.762-4.832C358.833,231.922,398.414,161.138,379.168,93.067z"/>
	</g>
</g>
<g>
	<g>
		<path d="M234.667,96h42.667V74.667h-42.667c-17.673,0-32,14.327-32,32c0,17.673,14.327,32,32,32h42.667v-21.333h-42.667
			c-5.891,0-10.667-4.776-10.667-10.667S228.776,96,234.667,96z"/>
	</g>
</g>
<g>
	<g>
		<path d="M277.333,117.333h-42.667v21.333h42.667c5.891,0,10.667,4.776,10.667,10.667c0,5.891-4.776,10.667-10.667,10.667h-42.667
			c-5.891,0-10.667-4.776-10.667-10.667h-21.333c0,17.673,14.327,32,32,32h42.667c17.673,0,32-14.327,32-32
			C309.333,131.66,295.006,117.333,277.333,117.333z"/>
	</g>
</g>
<g>
	<g>
		<rect x="245.333" y="170.667" width="21.333" height="32"/>
	</g>
</g>
<g>
	<g>
		<rect x="245.333" y="53.333" width="21.333" height="32"/>
	</g>
</g>
<g>
	<g>
		<path d="M160,224c-17.673,0-32,14.327-32,32v42.667h21.333V256c0-5.891,4.776-10.667,10.667-10.667h42.667V224H160z"/>
	</g>
</g>
<g>
	<g>
		<rect x="181.333" y="234.667" width="21.333" height="64"/>
	</g>
</g>
<g>
	<g>
		<path d="M256,245.333V320h-21.333v21.333h32c5.891,0,10.667-4.776,10.667-10.667v-85.333H256z"/>
	</g>
</g>
<g>
	<g>
		<rect x="320" y="448" width="64" height="21.333"/>
	</g>
</g>
<g>
	<g>
		<rect x="320" y="405.333" width="64" height="21.333"/>
	</g>
</g>
<g>
</g>
<g>
</g>
<g>
</g>
<g>
</g>
<g>
</g>
<g>
</g>
<g>
</g>
<g>
</g>
<g>
</g>
<g>
</g>
<g>
</g>
<g>
</g>
<g>
</g>
<g>
</g>
<g>
</g>
</svg>
