<?xml version="1.0" encoding="iso-8859-1"?>
<!-- Generator: Adobe Illustrator 19.0.0, SVG Export Plug-In . SVG Version: 6.00 Build 0)  -->
<svg version="1.1" id="Capa_1" xmlns="http://www.w3.org/2000/svg" xmlns:xlink="http://www.w3.org/1999/xlink" x="0px" y="0px"
	 viewBox="0 0 512 512" style="enable-background:new 0 0 512 512;" xml:space="preserve">
<path style="fill:#2E3842;" d="M216.688,504.396H449.18c20.553,0,37.215-16.662,37.215-37.215V44.819
	c0-20.553-16.662-37.215-37.215-37.215H216.688c-20.553,0-37.215,16.662-37.215,37.215v422.363
	C179.473,487.734,196.135,504.396,216.688,504.396z"/>
<polyline style="fill:#DDDDDD;" points="203.242,397.486 203.242,427.966 462.626,427.966 462.626,84.034 203.242,84.034 
	203.242,119.196 "/>
<circle style="fill:#F4B74A;" cx="139.163" cy="258.018" r="113.563"/>
<path style="fill:#FFD488;" d="M219.459,258.015c0,44.346-35.952,80.298-80.298,80.298c-21.251,0-40.575-8.263-54.931-21.747
	c-10.534-9.865-18.391-22.548-22.396-36.854c-1.936-6.894-2.971-14.174-2.971-21.697c0-44.346,35.952-80.298,80.298-80.298
	c7.523,0,14.802,1.034,21.697,2.971c14.306,4.005,26.989,11.862,36.854,22.396C211.207,217.44,219.459,236.764,219.459,258.015z"/>
<path style="fill:#F9C662;" d="M197.712,203.084L84.231,316.565c-10.534-9.865-18.391-22.548-22.396-36.854l99.024-99.024
	C175.164,184.692,187.847,192.55,197.712,203.084z"/>
<polygon style="fill:#E05F5F;" points="407.215,258.014 335.169,185.968 335.169,216.954 282.705,216.954 282.705,299.073 
	335.169,299.073 335.169,330.06 "/>
<path d="M449.18,0H216.688c-24.713,0-44.819,20.106-44.819,44.819v83.501c0,4.199,3.404,7.604,7.604,7.604
	c4.2,0,7.604-3.405,7.604-7.604V44.819c0-16.327,13.283-29.611,29.611-29.611H449.18c16.327,0,29.611,13.284,29.611,29.611v422.363
	c0,16.327-13.284,29.611-29.611,29.611H216.688c-16.327,0-29.611-13.284-29.611-29.611v-75.778c0-4.199-3.404-7.604-7.604-7.604
	c-4.2,0-7.604,3.405-7.604,7.604v75.778c0,24.713,20.106,44.819,44.819,44.819H449.18c24.713,0,44.819-20.106,44.819-44.819V44.819
	C493.999,20.106,473.893,0,449.18,0z"/>
<path d="M195.638,84.034v54.426c0,4.199,3.404,7.604,7.604,7.604c4.2,0,7.604-3.405,7.604-7.604V91.638h244.176v328.725H210.846
	v-43.154c0-4.199-3.404-7.604-7.604-7.604c-4.2,0-7.604,3.405-7.604,7.604v50.758c0,4.199,3.404,7.604,7.604,7.604h259.384
	c4.2,0,7.604-3.405,7.604-7.604V84.034c0-4.199-3.404-7.604-7.604-7.604H203.242C199.041,76.43,195.638,79.833,195.638,84.034z"/>
<path d="M260.329,258.014c0-66.809-54.354-121.164-121.165-121.164S18.001,191.203,18.001,258.014s54.353,121.164,121.164,121.164
	S260.329,324.823,260.329,258.014z M139.165,363.969c-58.424,0-105.956-47.532-105.956-105.956s47.532-105.956,105.956-105.956
	c58.425,0,105.957,47.532,105.957,105.956S197.589,363.969,139.165,363.969z"/>
<path d="M139.165,170.111c-16.743,0-33.029,4.728-47.098,13.67c-3.544,2.253-4.591,6.952-2.338,10.497s6.952,4.591,10.496,2.338
	c11.627-7.391,25.091-11.297,38.939-11.297c40.084,0,72.695,32.611,72.695,72.695s-32.611,72.695-72.695,72.695
	S66.47,298.097,66.47,258.013c0-17.747,6.464-34.834,18.203-48.117c2.781-3.147,2.484-7.953-0.662-10.733
	c-3.148-2.783-7.953-2.484-10.734,0.662c-14.196,16.065-22.015,36.729-22.015,58.189c0,48.47,39.433,87.903,87.903,87.903
	s87.903-39.433,87.903-87.903S187.634,170.111,139.165,170.111z"/>
<path d="M118.096,281.907c0-4.199-3.404-7.604-7.604-7.604s-7.604,3.405-7.604,7.604c0,15.103,12.308,27.753,28.672,30.796v2.655
	c0,4.199,3.404,7.604,7.604,7.604s7.604-3.405,7.604-7.604v-2.655c16.364-3.044,28.673-15.693,28.673-30.796
	c0-15.104-12.309-27.753-28.673-30.796v-32.167c7.867,2.364,13.465,8.267,13.465,15.174c0,4.199,3.404,7.604,7.604,7.604
	c4.2,0,7.604-3.405,7.604-7.604c0-15.104-12.309-27.752-28.673-30.796v-2.655c0-4.199-3.404-7.604-7.604-7.604
	s-7.604,3.405-7.604,7.604v2.655c-16.364,3.044-28.672,15.693-28.672,30.796s12.308,27.753,28.672,30.796v32.167
	C123.695,294.717,118.096,288.815,118.096,281.907z M160.234,281.907c0,6.907-5.6,12.81-13.465,15.175v-30.35
	C154.634,269.097,160.234,275,160.234,281.907z M118.096,234.119c0-6.907,5.599-12.809,13.464-15.174v30.349
	C123.695,246.929,118.096,241.026,118.096,234.119z"/>
<path d="M381.597,53.805c4.2,0,7.604-3.405,7.604-7.604s-3.404-7.604-7.604-7.604h-97.326c-4.2,0-7.604,3.405-7.604,7.604
	s3.404,7.604,7.604,7.604H381.597z"/>
<path d="M308.602,467.439c0,13.416,10.915,24.332,24.332,24.332c13.416,0,24.332-10.915,24.332-24.332s-10.915-24.332-24.332-24.332
	C319.517,443.107,308.602,454.022,308.602,467.439z M342.058,467.439c0,5.031-4.093,9.124-9.124,9.124s-9.124-4.093-9.124-9.124
	s4.093-9.124,9.124-9.124S342.058,462.408,342.058,467.439z"/>
<path d="M332.261,337.085c0.941,0.389,1.928,0.579,2.908,0.579c1.979,0,3.924-0.773,5.38-2.227l72.046-72.046
	c2.97-2.97,2.97-7.784,0-10.753l-72.046-72.046c-2.176-2.175-5.446-2.826-8.287-1.649c-2.842,1.177-4.694,3.95-4.694,7.025v23.383
	h-44.861c-4.2,0-7.604,3.405-7.604,7.604v82.119c0,4.199,3.404,7.604,7.604,7.604h44.861v23.383
	C327.566,333.135,329.419,335.906,332.261,337.085z M290.309,291.469v-66.911h44.861c4.2,0,7.604-3.405,7.604-7.604v-12.629
	l53.688,53.688l-53.688,53.688v-12.629c0-4.199-3.404-7.604-7.604-7.604H290.309z"/>
<g>
</g>
<g>
</g>
<g>
</g>
<g>
</g>
<g>
</g>
<g>
</g>
<g>
</g>
<g>
</g>
<g>
</g>
<g>
</g>
<g>
</g>
<g>
</g>
<g>
</g>
<g>
</g>
<g>
</g>
</svg>
