<?xml version="1.0" encoding="iso-8859-1"?>
<!-- Generator: Adobe Illustrator 19.0.0, SVG Export Plug-In . SVG Version: 6.00 Build 0)  -->
<svg version="1.1" id="Capa_1" xmlns="http://www.w3.org/2000/svg" xmlns:xlink="http://www.w3.org/1999/xlink" x="0px" y="0px"
	 viewBox="0 0 512 512" style="enable-background:new 0 0 512 512;" xml:space="preserve">
<rect x="292.57" y="341.13" style="fill:#00B192;" width="208.47" height="32.359"/>
<g>
	<rect x="292.57" y="308.77" style="fill:#26CFAD;" width="208.47" height="32.359"/>
	<rect x="292.57" y="124.51" style="fill:#26CFAD;" width="208.47" height="184.25"/>
</g>
<g>
	<path style="fill:#00B192;" d="M501.034,124.513v60.221c-33.209,0-60.221-27.012-60.221-60.221
		C440.813,124.513,501.034,124.513,501.034,124.513z"/>
	<path style="fill:#00B192;" d="M501.034,248.546v60.221h-60.221C440.813,275.558,467.825,248.546,501.034,248.546z"/>
</g>
<path style="fill:#3688C8;" d="M10.966,420.625h281.603v64.474c0,9.334-7.567,16.901-16.901,16.901H27.867
	c-9.334,0-16.901-7.567-16.901-16.901C10.966,485.099,10.966,420.625,10.966,420.625z"/>
<rect x="10.966" y="77.37" style="fill:#EAECF0;" width="281.6" height="343.25"/>
<path style="fill:#00B192;" d="M316.504,134.39c-8.322,0-16.358,1.242-23.935,3.551V295.34c7.576,2.309,15.613,3.551,23.935,3.551
	c45.353,0,82.25-36.897,82.25-82.25S361.857,134.39,316.504,134.39z"/>
<path style="fill:#FFD36C;" d="M316.504,169.265c-8.725,0-16.907,2.371-23.935,6.503v81.746c7.028,4.131,15.21,6.503,23.935,6.503
	c26.123,0,47.376-21.253,47.376-47.376C363.88,190.517,342.627,169.265,316.504,169.265z"/>
<path style="fill:#48C8F5;" d="M292.569,77.373H10.966V26.901C10.966,17.567,18.533,10,27.867,10h247.802
	c9.334,0,16.901,7.567,16.901,16.901v50.472H292.569z"/>
<path d="M501.034,114.514H302.569V26.901C302.569,12.068,290.501,0,275.668,0H27.867C13.034,0,0.966,12.068,0.966,26.901V485.1
	c0,14.833,12.068,26.9,26.901,26.9h247.801c14.833,0,26.901-12.067,26.901-26.9V383.485h198.465c5.522,0,10-4.478,10-10V124.514
	C511.034,118.991,506.557,114.514,501.034,114.514z M316.504,144.391c39.839,0,72.25,32.411,72.25,72.25s-32.411,72.25-72.25,72.25
	c-4.701,0-9.365-0.452-13.935-1.348v-15.247c4.536,1.137,9.217,1.72,13.935,1.72c31.637,0,57.376-25.738,57.376-57.375
	c0-31.638-25.739-57.376-57.376-57.376c-4.717,0-9.398,0.583-13.935,1.72v-15.247C307.139,144.843,311.803,144.391,316.504,144.391z
	 M302.569,181.963c4.407-1.774,9.142-2.698,13.935-2.698c20.609,0,37.376,16.767,37.376,37.376
	c0,20.608-16.767,37.375-37.376,37.375c-4.794,0-9.527-0.923-13.935-2.697V181.963z M20.966,26.901c0-3.806,3.096-6.901,6.901-6.901
	h247.801c3.806,0,6.901,3.096,6.901,6.901v40.472H20.966V26.901z M282.569,485.1c0,3.805-3.096,6.9-6.901,6.9H27.867
	c-3.805,0-6.901-3.096-6.901-6.9v-54.475h261.603V485.1z M282.569,410.625H20.966V87.373h261.603V410.625z M491.034,363.485H302.569
	v-12.359h188.465V363.485z M491.034,331.126H302.569v-12.358h188.465V331.126z M491.034,298.768h-39.221
	c3.992-19.687,19.534-35.229,39.221-39.221V298.768z M491.034,239.257c-30.734,4.401-55.11,28.777-59.51,59.511h-73.028
	c29.813-15.305,50.258-46.373,50.258-82.127s-20.445-66.822-50.258-82.127h73.028c4.401,30.734,28.777,55.11,59.51,59.51V239.257z
	 M491.034,173.734c-19.686-3.992-35.229-19.534-39.221-39.221h39.221V173.734z"/>
<path d="M171.768,471.313h-40c-5.523,0-10-4.478-10-10s4.477-10,10-10h40c5.523,0,10,4.478,10,10S177.29,471.313,171.768,471.313z"
	/>
<path d="M220.81,53.689c-2.64,0-5.22-1.069-7.07-2.93c-0.47-0.46-0.88-0.97-1.25-1.52c-0.36-0.54-0.67-1.131-0.92-1.73
	s-0.44-1.229-0.57-1.87c-0.13-0.64-0.19-1.3-0.19-1.95c0-2.64,1.059-5.21,2.92-7.069c0.46-0.471,0.98-0.88,1.52-1.25
	c0.55-0.36,1.13-0.67,1.73-0.92c0.6-0.25,1.23-0.44,1.87-0.57c1.29-0.26,2.62-0.26,3.91,0c0.64,0.13,1.27,0.32,1.87,0.57
	c0.6,0.25,1.19,0.56,1.73,0.92c0.55,0.37,1.06,0.779,1.52,1.25c1.86,1.859,2.93,4.43,2.93,7.069c0,0.65-0.07,1.311-0.2,1.95
	c-0.13,0.641-0.32,1.271-0.57,1.87s-0.56,1.19-0.92,1.73c-0.36,0.55-0.78,1.06-1.24,1.52s-0.97,0.88-1.52,1.24
	c-0.54,0.359-1.13,0.67-1.73,0.92c-0.6,0.25-1.23,0.44-1.87,0.57C222.12,53.62,221.46,53.689,220.81,53.689z"/>
<path d="M180.923,53.687H82.729c-5.523,0-10-4.478-10-10s4.477-10,10-10h98.194c5.523,0,10,4.478,10,10
	S186.446,53.687,180.923,53.687z"/>
<polygon style="fill:#ED7161;" points="55.314,208.951 153.534,273.131 153.534,238.449 248.221,238.449 248.221,179.453 
	153.534,179.453 153.534,144.771 "/>
<path d="M248.221,169.453h-84.687v-24.682c0-3.672-2.012-7.048-5.241-8.795c-3.229-1.748-7.156-1.586-10.23,0.424l-98.22,64.18
	c-2.826,1.847-4.53,4.995-4.53,8.371s1.704,6.524,4.53,8.371l98.22,64.18c1.657,1.083,3.561,1.629,5.471,1.629
	c1.633,0,3.27-0.399,4.759-1.205c3.229-1.747,5.241-5.123,5.241-8.795v-24.682h84.687c5.523,0,10-4.478,10-10v-58.996
	C258.221,173.931,253.744,169.453,248.221,169.453z M238.221,228.449h-74.687v-7.019c0-5.522-4.477-10-10-10s-10,4.478-10,10v33.221
	l-69.938-45.7l69.938-45.7v16.202c0,5.523,4.477,10,10,10h84.687V228.449z"/>
<rect x="55.31" y="308.59" style="fill:#FFD36C;" width="192.91" height="65.5"/>
<path d="M248.221,384.091H55.314c-5.523,0-10-4.477-10-10V308.59c0-5.522,4.477-10,10-10h192.907c5.523,0,10,4.478,10,10v65.501
	C258.221,379.613,253.744,384.091,248.221,384.091z M65.314,364.091h172.907V318.59H65.314V364.091z"/>
<g>
</g>
<g>
</g>
<g>
</g>
<g>
</g>
<g>
</g>
<g>
</g>
<g>
</g>
<g>
</g>
<g>
</g>
<g>
</g>
<g>
</g>
<g>
</g>
<g>
</g>
<g>
</g>
<g>
</g>
</svg>
